<svg width="70" height="69" viewBox="0 0 70 69" fill="none" xmlns="http://www.w3.org/2000/svg">
<path d="M48.3333 21.1667C61.6667 21.1667 68.3333 14.5 68.3333 1.16669C55 1.16669 48.3333 7.83335 48.3333 21.1667ZM48.3333 21.1667C40 36.1667 38 45.1 35 67.8334C34.6158 54.9677 31.435 42.3399 25.6787 30.8273C19.9224 19.3148 11.7287 9.1935 1.66666 1.16669M53.0333 6.46669C46.1161 2.01691 37.7979 0.281639 29.6785 1.59459C21.5591 2.90754 14.2117 7.176 9.04945 13.5791C3.88717 19.9822 1.27446 28.0678 1.71379 36.2809C2.15311 44.4941 5.61343 52.2548 11.4293 58.0707C17.2452 63.8866 25.0059 67.3469 33.2191 67.7862C41.4322 68.2255 49.5178 65.6128 55.9209 60.4506C62.324 55.2883 66.5925 47.9409 67.9054 39.8215C69.2184 31.7021 67.4831 23.3839 63.0333 16.4667" stroke="black" stroke-width="2" stroke-linecap="round" stroke-linejoin="round"/>
</svg>
